<svg width="1200" height="700" viewBox="0 0 1200 700" fill="none" xmlns="http://www.w3.org/2000/svg">
  <defs>
    <linearGradient id="bg1" x1="0" y1="0" x2="1200" y2="700" gradientUnits="userSpaceOnUse">
      <stop stop-color="#0B3A74"/>
      <stop offset="1" stop-color="#0B8ADB"/>
    </linearGradient>
    <linearGradient id="glass" x1="130" y1="120" x2="1080" y2="560" gradientUnits="userSpaceOnUse">
      <stop stop-color="#F3F8FF" stop-opacity="0.85"/>
      <stop offset="1" stop-color="#B8D8FF" stop-opacity="0.3"/>
    </linearGradient>
  </defs>
  <rect width="1200" height="700" fill="url(#bg1)"/>
  <circle cx="1020" cy="90" r="170" fill="#4CC6FF" fill-opacity="0.35"/>
  <circle cx="180" cy="640" r="220" fill="#081B3B" fill-opacity="0.55"/>
  <rect x="130" y="120" width="940" height="440" rx="24" fill="url(#glass)"/>
  <rect x="180" y="180" width="470" height="24" rx="12" fill="#0F2F62" fill-opacity="0.4"/>
  <rect x="180" y="230" width="330" height="18" rx="9" fill="#0F2F62" fill-opacity="0.3"/>
  <rect x="180" y="275" width="300" height="18" rx="9" fill="#0F2F62" fill-opacity="0.25"/>
  <rect x="700" y="188" width="320" height="255" rx="14" fill="#E8F4FF" fill-opacity="0.66"/>
  <rect x="730" y="220" width="260" height="34" rx="10" fill="#1270BF" fill-opacity="0.5"/>
  <rect x="730" y="272" width="260" height="18" rx="9" fill="#1270BF" fill-opacity="0.3"/>
  <rect x="730" y="305" width="170" height="18" rx="9" fill="#1270BF" fill-opacity="0.28"/>
  <rect x="180" y="470" width="840" height="42" rx="12" fill="#0C4D8D" fill-opacity="0.35"/>
</svg>
