<svg width="1200" height="700" viewBox="0 0 1200 700" fill="none" xmlns="http://www.w3.org/2000/svg">
  <defs>
    <linearGradient id="bg" x1="120" y1="40" x2="1060" y2="640" gradientUnits="userSpaceOnUse">
      <stop offset="0" stop-color="#0B1B2A"/>
      <stop offset="1" stop-color="#1D4D8A"/>
    </linearGradient>
    <linearGradient id="panel" x1="280" y1="150" x2="910" y2="560" gradientUnits="userSpaceOnUse">
      <stop offset="0" stop-color="#FFFFFF" stop-opacity="0.98"/>
      <stop offset="1" stop-color="#EAF2FF" stop-opacity="0.92"/>
    </linearGradient>
  </defs>

  <rect width="1200" height="700" fill="url(#bg)"/>

  <g opacity="0.18" stroke="#8FB5E8" stroke-width="2">
    <path d="M40 120H1160"/>
    <path d="M40 220H1160"/>
    <path d="M40 320H1160"/>
    <path d="M40 420H1160"/>
    <path d="M40 520H1160"/>
    <path d="M180 40V660"/>
    <path d="M360 40V660"/>
    <path d="M540 40V660"/>
    <path d="M720 40V660"/>
    <path d="M900 40V660"/>
    <path d="M1080 40V660"/>
  </g>

  <rect x="220" y="120" width="760" height="460" rx="24" fill="url(#panel)"/>
  <rect x="260" y="170" width="680" height="44" rx="12" fill="#D7E6FB"/>
  <rect x="290" y="184" width="180" height="16" rx="8" fill="#5C84B7"/>

  <rect x="260" y="242" width="300" height="300" rx="16" fill="#F3F7FF"/>
  <rect x="584" y="242" width="356" height="136" rx="16" fill="#F3F7FF"/>
  <rect x="584" y="406" width="356" height="136" rx="16" fill="#F3F7FF"/>

  <rect x="288" y="274" width="244" height="18" rx="9" fill="#2B5B98"/>
  <rect x="288" y="306" width="180" height="14" rx="7" fill="#88A9D1"/>
  <rect x="288" y="342" width="220" height="14" rx="7" fill="#88A9D1"/>

  <path d="M320 470L388 410L430 448L498 372" stroke="#0C66BC" stroke-width="12" stroke-linecap="round" stroke-linejoin="round"/>
  <circle cx="320" cy="470" r="10" fill="#0C66BC"/>
  <circle cx="388" cy="410" r="10" fill="#0C66BC"/>
  <circle cx="430" cy="448" r="10" fill="#0C66BC"/>
  <circle cx="498" cy="372" r="10" fill="#0C66BC"/>

  <rect x="614" y="274" width="260" height="18" rx="9" fill="#2B5B98"/>
  <rect x="614" y="306" width="220" height="14" rx="7" fill="#88A9D1"/>
  <rect x="614" y="438" width="260" height="18" rx="9" fill="#2B5B98"/>
  <rect x="614" y="470" width="220" height="14" rx="7" fill="#88A9D1"/>

  <path d="M980 84L1024 128" stroke="#B7D1F3" stroke-width="10" stroke-linecap="round"/>
  <path d="M1012 84L1056 128" stroke="#B7D1F3" stroke-width="10" stroke-linecap="round"/>
</svg>
